<svg width="170" height="176" viewBox="0 0 170 176" fill="none" xmlns="http://www.w3.org/2000/svg">
<path d="M116.902 5H51.8769C51.4084 5 51 5.34039 50.8931 5.79653C43.3005 38.1926 19.5948 39.8889 6.60585 39.0211C6.08478 38.9863 5.63239 39.3336 5.56983 39.852C4.44987 49.1336 -2.31205 128.143 85.3993 170.772C85.6887 170.912 85.9937 170.934 86.2742 170.776C92.8571 167.071 177.646 117.685 163.198 39.8543C163.105 39.3508 162.645 38.9845 162.133 39C156.729 39.164 128.311 38.428 117.866 5.71959C117.733 5.30113 117.341 5 116.902 5Z" fill="white" stroke="black" stroke-width="9"/>
<path d="M106.76 35H64.3022C63.8335 35 63.4259 35.3382 63.3167 35.794C58.293 56.746 43.0338 58.0867 34.4214 57.5642C33.8999 57.5326 33.4454 57.8661 33.3873 58.3854C32.5669 65.7244 29.0433 116.907 86.0278 144.77C86.3176 144.912 86.627 144.931 86.9074 144.772C92.1866 141.767 146.853 109.3 137.669 58.3998C137.578 57.8956 137.12 57.5292 136.608 57.5369C132.406 57.6001 114.515 56.6076 107.726 35.7177C107.591 35.2997 107.2 35 106.76 35Z" stroke="black" stroke-width="9"/>
<path d="M79.5 74V125H89.5V117.5H84V112H89.5V104H84V100.5H90.5V74H79.5Z" fill="#F40000"/>
<circle cx="85.5" cy="64.5" r="14.5" fill="#F40000"/>
</svg>
